<svg width="20" height="20" viewBox="0 0 20 20" fill="none" xmlns="http://www.w3.org/2000/svg">
<path d="M13.3332 13.3333V15.6666C13.3332 16.6 13.3332 17.0668 13.1515 17.4233C12.9917 17.7369 12.7368 17.9918 12.4232 18.1516C12.0666 18.3333 11.5999 18.3333 10.6665 18.3333H4.33317C3.39975 18.3333 2.93304 18.3333 2.57652 18.1516C2.26292 17.9918 2.00795 17.7369 1.84816 17.4233C1.6665 17.0668 1.6665 16.6 1.6665 15.6666V9.33329C1.6665 8.39987 1.6665 7.93316 1.84816 7.57664C2.00795 7.26304 2.26292 7.00807 2.57652 6.84828C2.93304 6.66663 3.39975 6.66663 4.33317 6.66663H6.6665M9.33317 13.3333H15.6665C16.5999 13.3333 17.0666 13.3333 17.4232 13.1516C17.7368 12.9918 17.9917 12.7369 18.1515 12.4233C18.3332 12.0668 18.3332 11.6 18.3332 10.6666V4.33329C18.3332 3.39987 18.3332 2.93316 18.1515 2.57664C17.9917 2.26304 17.7368 2.00807 17.4232 1.84828C17.0666 1.66663 16.5999 1.66663 15.6665 1.66663H9.33317C8.39975 1.66663 7.93304 1.66663 7.57652 1.84828C7.26292 2.00807 7.00795 2.26304 6.84816 2.57664C6.6665 2.93316 6.6665 3.39987 6.6665 4.33329V10.6666C6.6665 11.6 6.6665 12.0668 6.84816 12.4233C7.00795 12.7369 7.26292 12.9918 7.57652 13.1516C7.93304 13.3333 8.39975 13.3333 9.33317 13.3333Z" stroke="#CECFD2" stroke-width="1.66667" stroke-linecap="round" stroke-linejoin="round"/>
</svg>
