<svg width="44" height="44" viewBox="0 0 44 44" fill="none" xmlns="http://www.w3.org/2000/svg">
<g filter="url(#filter0_dii_202_27506)">
<path d="M2 9C2 4.58172 5.58172 1 10 1H34C38.4183 1 42 4.58172 42 9V33C42 37.4183 38.4183 41 34 41H10C5.58172 41 2 37.4183 2 33V9Z" fill="white"/>
<path d="M2.5 9C2.5 4.85786 5.85786 1.5 10 1.5H34C38.1421 1.5 41.5 4.85786 41.5 9V33C41.5 37.1421 38.1421 40.5 34 40.5H10C5.85786 40.5 2.5 37.1421 2.5 33V9Z" stroke="#D5D7DA"/>
<g clip-path="url(#clip0_202_27506)">
<path d="M22 12.8008C24.6719 12.8008 24.9883 12.8125 26.0391 12.8594C27.0156 12.9023 27.543 13.0664 27.8945 13.2031C28.3594 13.3828 28.6953 13.6016 29.043 13.9492C29.3945 14.3008 29.6094 14.6328 29.7891 15.0977C29.9258 15.4492 30.0898 15.9805 30.1328 16.9531C30.1797 18.0078 30.1914 18.3242 30.1914 20.9922C30.1914 23.6641 30.1797 23.9805 30.1328 25.0313C30.0898 26.0078 29.9258 26.5352 29.7891 26.8867C29.6094 27.3516 29.3906 27.6875 29.043 28.0352C28.6914 28.3867 28.3594 28.6016 27.8945 28.7813C27.543 28.918 27.0117 29.082 26.0391 29.125C24.9844 29.1719 24.668 29.1836 22 29.1836C19.3281 29.1836 19.0117 29.1719 17.9609 29.125C16.9844 29.082 16.457 28.918 16.1055 28.7813C15.6406 28.6016 15.3047 28.3828 14.957 28.0352C14.6055 27.6836 14.3906 27.3516 14.2109 26.8867C14.0742 26.5352 13.9102 26.0039 13.8672 25.0313C13.8203 23.9766 13.8086 23.6602 13.8086 20.9922C13.8086 18.3203 13.8203 18.0039 13.8672 16.9531C13.9102 15.9766 14.0742 15.4492 14.2109 15.0977C14.3906 14.6328 14.6094 14.2969 14.957 13.9492C15.3086 13.5977 15.6406 13.3828 16.1055 13.2031C16.457 13.0664 16.9883 12.9023 17.9609 12.8594C19.0117 12.8125 19.3281 12.8008 22 12.8008ZM22 11C19.2852 11 18.9453 11.0117 17.8789 11.0586C16.8164 11.1055 16.0859 11.2773 15.4531 11.5234C14.793 11.7812 14.2344 12.1211 13.6797 12.6797C13.1211 13.2344 12.7813 13.793 12.5234 14.4492C12.2773 15.0859 12.1055 15.8125 12.0586 16.875C12.0117 17.9453 12 18.2852 12 21C12 23.7148 12.0117 24.0547 12.0586 25.1211C12.1055 26.1836 12.2773 26.9141 12.5234 27.5469C12.7813 28.207 13.1211 28.7656 13.6797 29.3203C14.2344 29.875 14.793 30.2188 15.4492 30.4727C16.0859 30.7188 16.8125 30.8906 17.875 30.9375C18.9414 30.9844 19.2813 30.9961 21.9961 30.9961C24.7109 30.9961 25.0508 30.9844 26.1172 30.9375C27.1797 30.8906 27.9102 30.7188 28.543 30.4727C29.1992 30.2188 29.7578 29.875 30.3125 29.3203C30.8672 28.7656 31.2109 28.207 31.4648 27.5508C31.7109 26.9141 31.8828 26.1875 31.9297 25.125C31.9766 24.0586 31.9883 23.7188 31.9883 21.0039C31.9883 18.2891 31.9766 17.9492 31.9297 16.8828C31.8828 15.8203 31.7109 15.0898 31.4648 14.457C31.2188 13.793 30.8789 13.2344 30.3203 12.6797C29.7656 12.125 29.207 11.7813 28.5508 11.5273C27.9141 11.2812 27.1875 11.1094 26.125 11.0625C25.0547 11.0117 24.7148 11 22 11Z" fill="#A4A7AE"/>
<path d="M22 15.8633C19.1641 15.8633 16.8633 18.1641 16.8633 21C16.8633 23.8359 19.1641 26.1367 22 26.1367C24.8359 26.1367 27.1367 23.8359 27.1367 21C27.1367 18.1641 24.8359 15.8633 22 15.8633ZM22 24.332C20.1602 24.332 18.668 22.8398 18.668 21C18.668 19.1602 20.1602 17.668 22 17.668C23.8398 17.668 25.332 19.1602 25.332 21C25.332 22.8398 23.8398 24.332 22 24.332Z" fill="#A4A7AE"/>
<path d="M28.5391 15.6602C28.5391 16.3242 28 16.8594 27.3398 16.8594C26.6758 16.8594 26.1406 16.3203 26.1406 15.6602C26.1406 14.9961 26.6797 14.4609 27.3398 14.4609C28 14.4609 28.5391 15 28.5391 15.6602Z" fill="#A4A7AE"/>
</g>
</g>
<defs>
<filter id="filter0_dii_202_27506" x="0" y="0" width="44" height="44" filterUnits="userSpaceOnUse" color-interpolation-filters="sRGB">
<feFlood flood-opacity="0" result="BackgroundImageFix"/>
<feColorMatrix in="SourceAlpha" type="matrix" values="0 0 0 0 0 0 0 0 0 0 0 0 0 0 0 0 0 0 127 0" result="hardAlpha"/>
<feOffset dy="1"/>
<feGaussianBlur stdDeviation="1"/>
<feComposite in2="hardAlpha" operator="out"/>
<feColorMatrix type="matrix" values="0 0 0 0 0.0392157 0 0 0 0 0.0496732 0 0 0 0 0.0705882 0 0 0 0.05 0"/>
<feBlend mode="normal" in2="BackgroundImageFix" result="effect1_dropShadow_202_27506"/>
<feBlend mode="normal" in="SourceGraphic" in2="effect1_dropShadow_202_27506" result="shape"/>
<feColorMatrix in="SourceAlpha" type="matrix" values="0 0 0 0 0 0 0 0 0 0 0 0 0 0 0 0 0 0 127 0" result="hardAlpha"/>
<feOffset dy="-2"/>
<feComposite in2="hardAlpha" operator="arithmetic" k2="-1" k3="1"/>
<feColorMatrix type="matrix" values="0 0 0 0 0.0392157 0 0 0 0 0.0496732 0 0 0 0 0.0705882 0 0 0 0.05 0"/>
<feBlend mode="normal" in2="shape" result="effect2_innerShadow_202_27506"/>
<feColorMatrix in="SourceAlpha" type="matrix" values="0 0 0 0 0 0 0 0 0 0 0 0 0 0 0 0 0 0 127 0" result="hardAlpha"/>
<feMorphology radius="1" operator="erode" in="SourceAlpha" result="effect3_innerShadow_202_27506"/>
<feOffset/>
<feComposite in2="hardAlpha" operator="arithmetic" k2="-1" k3="1"/>
<feColorMatrix type="matrix" values="0 0 0 0 0.0392157 0 0 0 0 0.0496732 0 0 0 0 0.0705882 0 0 0 0.18 0"/>
<feBlend mode="normal" in2="effect2_innerShadow_202_27506" result="effect3_innerShadow_202_27506"/>
</filter>
<clipPath id="clip0_202_27506">
<rect width="20" height="20" fill="white" transform="translate(12 11)"/>
</clipPath>
</defs>
</svg>
