<svg width="44" height="44" viewBox="0 0 44 44" fill="none" xmlns="http://www.w3.org/2000/svg">
<g filter="url(#filter0_dii_202_27484)">
<path d="M2 9C2 4.58172 5.58172 1 10 1H34C38.4183 1 42 4.58172 42 9V33C42 37.4183 38.4183 41 34 41H10C5.58172 41 2 37.4183 2 33V9Z" fill="white"/>
<path d="M2.5 9C2.5 4.85786 5.85786 1.5 10 1.5H34C38.1421 1.5 41.5 4.85786 41.5 9V33C41.5 37.1421 38.1421 40.5 34 40.5H10C5.85786 40.5 2.5 37.1421 2.5 33V9Z" stroke="#D5D7DA"/>
<g clip-path="url(#clip0_202_27484)">
<path fill-rule="evenodd" clip-rule="evenodd" d="M25.2879 30.1667L20.6634 23.5751L14.8741 30.1667H12.4248L19.5767 22.026L12.4248 11.8334H18.7131L23.0717 18.0459L28.5327 11.8334H30.982L24.1619 19.5971L31.5762 30.1667H25.2879ZM28.0154 28.3084H26.3665L15.9318 13.6917H17.5809L21.7601 19.5443L22.4828 20.5599L28.0154 28.3084Z" fill="#A4A7AE"/>
</g>
</g>
<defs>
<filter id="filter0_dii_202_27484" x="0" y="0" width="44" height="44" filterUnits="userSpaceOnUse" color-interpolation-filters="sRGB">
<feFlood flood-opacity="0" result="BackgroundImageFix"/>
<feColorMatrix in="SourceAlpha" type="matrix" values="0 0 0 0 0 0 0 0 0 0 0 0 0 0 0 0 0 0 127 0" result="hardAlpha"/>
<feOffset dy="1"/>
<feGaussianBlur stdDeviation="1"/>
<feComposite in2="hardAlpha" operator="out"/>
<feColorMatrix type="matrix" values="0 0 0 0 0.0392157 0 0 0 0 0.0496732 0 0 0 0 0.0705882 0 0 0 0.05 0"/>
<feBlend mode="normal" in2="BackgroundImageFix" result="effect1_dropShadow_202_27484"/>
<feBlend mode="normal" in="SourceGraphic" in2="effect1_dropShadow_202_27484" result="shape"/>
<feColorMatrix in="SourceAlpha" type="matrix" values="0 0 0 0 0 0 0 0 0 0 0 0 0 0 0 0 0 0 127 0" result="hardAlpha"/>
<feOffset dy="-2"/>
<feComposite in2="hardAlpha" operator="arithmetic" k2="-1" k3="1"/>
<feColorMatrix type="matrix" values="0 0 0 0 0.0392157 0 0 0 0 0.0496732 0 0 0 0 0.0705882 0 0 0 0.05 0"/>
<feBlend mode="normal" in2="shape" result="effect2_innerShadow_202_27484"/>
<feColorMatrix in="SourceAlpha" type="matrix" values="0 0 0 0 0 0 0 0 0 0 0 0 0 0 0 0 0 0 127 0" result="hardAlpha"/>
<feMorphology radius="1" operator="erode" in="SourceAlpha" result="effect3_innerShadow_202_27484"/>
<feOffset/>
<feComposite in2="hardAlpha" operator="arithmetic" k2="-1" k3="1"/>
<feColorMatrix type="matrix" values="0 0 0 0 0.0392157 0 0 0 0 0.0496732 0 0 0 0 0.0705882 0 0 0 0.18 0"/>
<feBlend mode="normal" in2="effect2_innerShadow_202_27484" result="effect3_innerShadow_202_27484"/>
</filter>
<clipPath id="clip0_202_27484">
<rect width="20" height="20" fill="white" transform="translate(12 11)"/>
</clipPath>
</defs>
</svg>
